<svg xmlns="http://www.w3.org/2000/svg" xmlns:xlink="http://www.w3.org/1999/xlink" xmlns:fi="http://pattern.flaticon.com/" x="0" y="0" width="700" height="350" viewBox="0 0 700 350"><rect x="0px" y="0px" width="100%" height="100%" opacity="0" fill="#ffffff"/><defs><g transform="matrix(0.145773801699891 0.070609183627438 -0.070609183627438 0.145773801699891 113.75785777345203 290.6059557562038)" id="L1_0"><path d="M458.667,0H53.333C23.915,0,0,23.936,0,53.333v405.333C0,488.064,23.915,512,53.333,512h405.333    C488.085,512,512,488.064,512,458.667V53.333C512,23.936,488.085,0,458.667,0z M490.667,458.667c0,17.643-14.357,32-32,32H53.333    c-17.643,0-32-14.357-32-32v-352h469.333V458.667z M490.667,85.333H21.333v-32c0-17.643,14.357-32,32-32h405.333    c17.643,0,32,14.357,32,32V85.333z" fill="#ededed"/><circle cx="53" cy="53" r="10" fill="#ededed"/><circle cx="96" cy="53" r="10" fill="#ededed"/><circle cx="138" cy="53" r="10" fill="#ededed"/><path d="M167.531,280.491l-64-64c-4.16-4.16-10.923-4.16-15.083,0c-4.16,4.16-4.16,10.923,0,15.083l56.448,56.448l-56.448,56.448    c-4.16,4.16-4.16,10.923,0,15.083c2.091,2.069,4.821,3.115,7.552,3.115s5.461-1.045,7.531-3.093l64-64    C171.691,291.413,171.691,284.651,167.531,280.491z" fill="#ededed"/><path d="M309.333,320H202.667c-5.888,0-10.667,4.779-10.667,10.667s4.779,10.667,10.667,10.667h106.667    c5.888,0,10.667-4.779,10.667-10.667S315.221,320,309.333,320z" fill="#ededed"/></g><g transform="matrix(0.1381344050168991 0 0 0.1381344050168991 260.6375923156738 44.63759231567383)" id="L1_1"><path d="M500.011,442.325L334.933,277.248c17.472-27.861,27.733-60.672,27.733-95.915C362.667,81.344,281.344,0,181.333,0    S0,81.344,0,181.333s81.344,181.333,181.333,181.333c35.221,0,68.011-10.261,95.872-27.691l165.077,165.056    c7.616,7.595,18.112,11.968,28.885,11.968C493.717,512,512,493.675,512,471.211C512,460.459,507.605,449.941,500.011,442.325z     M181.333,341.333c-88.235,0-160-71.765-160-160s71.787-160,160-160s160,71.765,160,160S269.568,341.333,181.333,341.333z     M471.168,490.688c-5.141,0-10.155-2.091-13.781-5.717L294.912,322.496c10.155-8.171,19.392-17.408,27.563-27.563l162.475,162.453    c3.605,3.648,5.717,8.683,5.717,13.803C490.667,481.941,481.899,490.688,471.168,490.688z" fill="#ededed"/><path d="M87.509,181.312l38.72-58.091c3.264-4.907,1.92-11.52-2.965-14.784c-4.864-3.221-11.499-1.963-14.805,2.965l-42.667,64    c-2.389,3.584-2.389,8.256,0,11.84l42.667,64c2.091,3.093,5.44,4.757,8.875,4.757c2.048,0,4.096-0.576,5.909-1.813    c4.907-3.264,6.229-9.877,2.965-14.784L87.509,181.312z" fill="#ededed"/><path d="M205.269,85.653c-5.76-1.493-11.52,2.027-12.928,7.765l-42.667,170.667c-1.429,5.717,2.027,11.499,7.765,12.928    c0.853,0.213,1.728,0.32,2.56,0.32c4.8,0,9.152-3.221,10.347-8.085l42.667-170.667C214.443,92.864,211.008,87.083,205.269,85.653z    " fill="#ededed"/><path d="M296.896,175.424l-42.667-64c-3.285-4.928-9.941-6.208-14.784-2.965c-4.907,3.264-6.229,9.877-2.965,14.784l38.699,58.091    l-38.72,58.091c-3.264,4.907-1.92,11.52,2.965,14.784c1.813,1.216,3.861,1.792,5.909,1.792c3.435,0,6.805-1.664,8.875-4.736    l42.667-64C299.285,183.68,299.285,179.008,296.896,175.424z" fill="#ededed"/></g><path d="M458.624,191.979c-16.021,0-25.387,6.101-34.368,11.947c-3.499,2.261-7.701,2.325-11.264,0.192s-5.504-5.909-5.163-10.048    l8.107-97.216c0.256-2.965-0.768-5.909-2.773-8.107c-2.027-2.197-4.864-3.456-7.851-3.456h-95.701    c-7.829,0-14.997,4.267-18.752,11.136c-3.712,6.848-3.435,15.147,0.768,21.653c4.267,6.613,7.04,11.605,7.04,20.544    c0,17.643-19.136,32-42.667,32c-23.531,0-42.667-14.357-42.667-32c0-8.939,2.773-13.931,7.019-20.523    c4.224-6.549,4.501-14.848,0.789-21.675c-3.755-6.869-10.923-11.136-18.752-11.136h-95.723c-2.965,0-5.824,1.259-7.851,3.456    c-2.005,2.197-3.029,5.141-2.773,8.107l8.107,97.216c0.341,4.16-1.6,7.915-5.163,10.048c-3.584,2.133-7.808,2.048-12.011-0.683    c-8.256-5.355-17.621-11.456-33.643-11.456c-29.397,0-53.333,28.715-53.333,64s23.936,64,53.333,64    c16.021,0,25.387-6.101,34.368-11.947c3.499-2.261,7.701-2.325,11.264-0.192c3.563,2.133,5.504,5.909,5.163,10.048l-8.107,97.216    c-0.256,2.965,0.768,5.909,2.773,8.107c2.027,2.197,4.864,3.456,7.851,3.456h95.723c7.829,0,14.997-4.267,18.752-11.136    c3.712-6.848,3.435-15.147-0.768-21.653c-4.267-6.613-7.04-11.605-7.04-20.544c0-17.643,19.136-32,42.667-32    c23.531,0,42.667,14.357,42.667,32c0,8.939-2.773,13.931-7.019,20.523c-4.224,6.549-4.501,14.848-0.789,21.675    c3.755,6.869,10.923,11.136,18.752,11.136h95.723c2.987,0,5.824-1.259,7.829-3.456c2.005-2.197,3.029-5.141,2.773-8.107    l-8.107-97.216c-0.341-4.16,1.6-7.915,5.163-10.048c3.563-2.155,7.787-2.048,12.011,0.683    c8.256,5.355,17.621,11.456,33.643,11.456c29.397,0,53.333-28.715,53.333-64S488.021,191.979,458.624,191.979z M458.624,298.667    c-9.685,0-14.848-3.349-22.763-8.512c-10.325-6.72-23.275-6.933-33.813-0.619c-10.56,6.315-16.491,17.856-15.467,30.123    l7.125,85.675l-84.139,0.064c5.269-8.192,10.411-17.408,10.411-32.064c0-29.397-28.715-53.333-64-53.333s-64,23.936-64,53.333    c0,14.656,5.141,23.872,10.389,32h-84.117l7.125-85.675c1.024-12.267-4.907-23.808-15.467-30.123    c-10.56-6.336-23.531-6.08-34.603,1.131c-7.147,4.651-12.288,8-21.995,8c-17.643,0-32-19.136-32-42.667    c0-23.531,14.357-42.667,32-42.667c9.685,0,14.848,3.349,22.763,8.512c10.304,6.699,23.275,6.912,33.813,0.619    c10.56-6.315,16.491-17.856,15.467-30.123l-7.125-85.675l84.139-0.064c-5.269,8.192-10.411,17.408-10.411,32.064    c0,29.397,28.715,53.333,64,53.333s64-23.936,64-53.333c0-14.656-5.141-23.872-10.389-32h84.117l-7.125,85.675    c-1.024,12.267,4.907,23.808,15.467,30.123c10.539,6.293,23.488,6.059,34.603-1.131c7.147-4.651,12.288-8,21.995-8    c17.643,0,32,19.136,32,42.667C490.624,279.531,476.267,298.667,458.624,298.667z" transform="matrix(0.42308076806530903 -0.24083059779074323 0.24083059779074323 0.42308076806530903 -164.80067088843185 186.23263654459547)" id="L1_2" fill="#ededed"/></defs><g fi:class="KUsePattern"><pattern id="pattern_L1_0" width="350" height="350" patternUnits="userSpaceOnUse"><use xlink:href="#L1_0" x="-350" y="-350"/><use xlink:href="#L1_0" x="0" y="-350"/><use xlink:href="#L1_0" x="350" y="-350"/><use xlink:href="#L1_0" x="-350" y="0"/><use xlink:href="#L1_0" x="0" y="0"/><use xlink:href="#L1_0" x="350" y="0"/><use xlink:href="#L1_0" x="-350" y="350"/><use xlink:href="#L1_0" x="0" y="350"/><use xlink:href="#L1_0" x="350" y="350"/></pattern><rect x="0" y="0" width="100%" height="100%" fill="url(#pattern_L1_0)"/></g><g fi:class="KUsePattern"><pattern id="pattern_L1_1" width="350" height="350" patternUnits="userSpaceOnUse"><use xlink:href="#L1_1" x="-350" y="-350"/><use xlink:href="#L1_1" x="0" y="-350"/><use xlink:href="#L1_1" x="350" y="-350"/><use xlink:href="#L1_1" x="-350" y="0"/><use xlink:href="#L1_1" x="0" y="0"/><use xlink:href="#L1_1" x="350" y="0"/><use xlink:href="#L1_1" x="-350" y="350"/><use xlink:href="#L1_1" x="0" y="350"/><use xlink:href="#L1_1" x="350" y="350"/></pattern><rect x="0" y="0" width="100%" height="100%" fill="url(#pattern_L1_1)"/></g><g fi:class="KUsePattern" opacity="1"><pattern id="pattern_L1_2" width="350" height="350" patternUnits="userSpaceOnUse"><use xlink:href="#L1_2" x="-350" y="-350"/><use xlink:href="#L1_2" x="0" y="-350"/><use xlink:href="#L1_2" x="350" y="-350"/><use xlink:href="#L1_2" x="-350" y="0"/><use xlink:href="#L1_2" x="0" y="0"/><use xlink:href="#L1_2" x="350" y="0"/><use xlink:href="#L1_2" x="-350" y="350"/><use xlink:href="#L1_2" x="0" y="350"/><use xlink:href="#L1_2" x="350" y="350"/></pattern><rect x="0" y="0" width="100%" height="100%" fill="url(#pattern_L1_2)"/></g></svg>