<?xml version="1.0" encoding="utf-8"?>
<!-- Generator: Adobe Illustrator 21.1.0, SVG Export Plug-In . SVG Version: 6.00 Build 0)  -->
<svg version="1.1" id="Layer_1" xmlns="http://www.w3.org/2000/svg" xmlns:xlink="http://www.w3.org/1999/xlink" x="0px" y="0px"
	 viewBox="0 0 750 750" style="enable-background:new 0 0 750 750;" xml:space="preserve">
<style type="text/css">
	.st0{opacity:6.000000e-02;}
	.st1{fill:#010101;}
	.st2{opacity:0.1;fill:#010101;}
</style>
<g class="st0">
	<path class="st1" d="M214.2,331.3c2.6,0,5.3,0.1,7.9,0.1c-0.3,0-0.5,0-0.8,0C218.9,331.4,216.5,331.4,214.2,331.3z"/>
	<path class="st1" d="M150.1,354.4C153.1,352.4,151.6,353.4,150.1,354.4L150.1,354.4z"/>
	<path class="st2" d="M150.1,354.4C153.1,352.4,151.6,353.4,150.1,354.4L150.1,354.4z"/>
	<path class="st1" d="M699.8,452c-14.1-0.5-28.2-0.9-42.2-1.3c-12.4-0.4-24.9-1-37.1-3.6c-4.1-1.3-8-2.9-11.7-4.8
		c-1.5-1.1-2.9-2.2-4.2-3.4c-0.1-0.1-0.2-0.2-0.2-0.4c0.5-1.3,1.1-2.5,1.7-3.8c4.6-7.6,9.7-15,13.5-22.9c5.2-10.6,7-21.9,5.7-33.5
		c-2.3-20.5-24.3-40.5-54.2-43.9c-25.7-2.9-50.2,3-72.2,9.7l-69,20.9l-37.5,11.3c-10.3,3.1-20.6,6.4-31.3,8.9
		c-6.3,1.1-12.8,2-19.5,2.2c-4.8-0.3-9.5-0.9-14.2-1.9c-3.4-1.1-6.6-2.4-9.6-3.9c-1.4-1-2.7-2.1-3.9-3.2c-0.5-0.8-1-1.6-1.5-2.5
		c-0.4-1.5-0.7-3.1-1-4.6c0.4-10.6,3.6-20.9,3.4-31.6c-0.2-10.3-1.6-19.2-6.3-29.3c-1.1-2.4-2.5-4.7-4.3-6.9
		c-3.2-4-6.5-8.2-11.1-11.5c-10-7.2-21.3-11.9-34.8-14c-11-1.8-22.9-1.7-33.5-0.3c-22.6,3-42.3,10.5-60.4,19.6
		c-8,4-15.7,8.3-22.7,13.1c-2.2,1.5-4.5,3.1-6.7,4.7c-0.5,0.3-0.9,0.7-1.4,1c-1.1,0.8-1,0.8,0.3-0.2c-2.2,1.6-4.3,3.3-6.4,5.1
		c-3.2,2.8-6.2,5.7-9.1,8.7c-4.4,4.7-8.1,9.3-8.6,15.3c-0.4,4,0.8,10.1,5.3,13.5c11.4,8.6,25.2,3.1,33.4-3c0.4-0.3,0.9-0.6,1.4-1
		c-0.6,0.4-1.3,0.9-2.3,1.5c1.2-0.8,2.4-1.6,3.7-2.4c2.5-1.6,5.1-3.1,7.8-4.6c4.3-2.5,8.8-4.8,13.4-6.9c7.5-3,15.4-5.4,23.7-7.3
		c8.4-1.6,16.9-2.9,25.8-3.2c4,0.2,7.9,0.6,11.8,1.4c1.9,0.7,3.8,1.5,5.6,2.3c1.1,0.8,2.1,1.7,3.1,2.6c0.6,0.8,1.1,1.7,1.5,2.6
		c0.4,1.4,0.6,2.8,0.8,4.2c-0.5,14.1-6.5,27.3-5.9,41.5c0.2,4.1,0.2,8.3,0.9,12.5c0.8,4.1,2.6,8.1,4.2,12.1
		c2.4,5.7,6.7,10.8,11.4,15.9c4.5,4.8,10.9,8.5,17.1,12.1c4.2,2.4,8.8,4.4,13.6,5.9c7.3,2.3,15.1,4.4,22.8,5.5
		c7.9,1.1,15.9,1.2,23.7,1.1c15.7-0.2,30.7-3.5,44.8-7.2c24.8-6.4,48.7-14.5,72.9-21.9l42-12.8c11.3-3.4,22.5-7.2,34.2-10
		c5.3-0.9,10.8-1.6,16.3-1.9c2.7,0.2,5.3,0.5,8,1c0.6,0.2,1.2,0.5,1.8,0.7c0.3,0.2,0.5,0.4,0.8,0.7c0,0,0,0.1,0,0.1
		c-0.6,1.6-1.3,3.2-2,4.7c-1.9,3.1-4,6.2-5.8,9.3c-2.6,4.5-5.3,9-7.4,13.7c-2.1,4.8-3.2,9.8-4.4,14.8c-3.4,14.9,1.9,32.5,16.9,45.2
		c12.7,10.7,30.1,17.1,48.2,20.4c16.9,3.1,34.2,2.7,51.2,3.3c33.3,1,66.5,2.8,99.7,5.1v-61.8C733.4,453.5,716.6,452.7,699.8,452z
		 M214.2,331.3c2.4,0,4.7,0,7.1,0c0.3,0,0.5,0,0.8,0C219.4,331.4,216.8,331.4,214.2,331.3z"/>
	<path class="st2" d="M699.8,452c-14.1-0.5-28.2-0.9-42.2-1.3c-12.4-0.4-24.9-1-37.1-3.6c-4.1-1.3-8-2.9-11.7-4.8
		c-1.5-1.1-2.9-2.2-4.2-3.4c-0.1-0.1-0.2-0.2-0.2-0.4c0.5-1.3,1.1-2.5,1.7-3.8c4.6-7.6,9.7-15,13.5-22.9c5.2-10.6,7-21.9,5.7-33.5
		c-2.3-20.5-24.3-40.5-54.2-43.9c-25.7-2.9-50.2,3-72.2,9.7l-69,20.9l-37.5,11.3c-10.3,3.1-20.6,6.4-31.3,8.9
		c-6.3,1.1-12.8,2-19.5,2.2c-4.8-0.3-9.5-0.9-14.2-1.9c-3.4-1.1-6.6-2.4-9.6-3.9c-1.4-1-2.7-2.1-3.9-3.2c-0.5-0.8-1-1.6-1.5-2.5
		c-0.4-1.5-0.7-3.1-1-4.6c0.4-10.6,3.6-20.9,3.4-31.6c-0.2-10.3-1.6-19.2-6.3-29.3c-1.1-2.4-2.5-4.7-4.3-6.9
		c-3.2-4-6.5-8.2-11.1-11.5c-10-7.2-21.3-11.9-34.8-14c-11-1.8-22.9-1.7-33.5-0.3c-22.6,3-42.3,10.5-60.4,19.6
		c-8,4-15.7,8.3-22.7,13.1c-2.2,1.5-4.5,3.1-6.7,4.7c-0.5,0.3-0.9,0.7-1.4,1c-1.1,0.8-1,0.8,0.3-0.2c-2.2,1.6-4.3,3.3-6.4,5.1
		c-3.2,2.8-6.2,5.7-9.1,8.7c-4.4,4.7-8.1,9.3-8.6,15.3c-0.4,4,0.8,10.1,5.3,13.5c11.4,8.6,25.2,3.1,33.4-3c0.4-0.3,0.9-0.6,1.4-1
		c-0.6,0.4-1.3,0.9-2.3,1.5c1.2-0.8,2.4-1.6,3.7-2.4c2.5-1.6,5.1-3.1,7.8-4.6c4.3-2.5,8.8-4.8,13.4-6.9c7.5-3,15.4-5.4,23.7-7.3
		c8.4-1.6,16.9-2.9,25.8-3.2c4,0.2,7.9,0.6,11.8,1.4c1.9,0.7,3.8,1.5,5.6,2.3c1.1,0.8,2.1,1.7,3.1,2.6c0.6,0.8,1.1,1.7,1.5,2.6
		c0.4,1.4,0.6,2.8,0.8,4.2c-0.5,14.1-6.5,27.3-5.9,41.5c0.2,4.1,0.2,8.3,0.9,12.5c0.8,4.1,2.6,8.1,4.2,12.1
		c2.4,5.7,6.7,10.8,11.4,15.9c4.5,4.8,10.9,8.5,17.1,12.1c4.2,2.4,8.8,4.4,13.6,5.9c7.3,2.3,15.1,4.4,22.8,5.5
		c7.9,1.1,15.9,1.2,23.7,1.1c15.7-0.2,30.7-3.5,44.8-7.2c24.8-6.4,48.7-14.5,72.9-21.9l42-12.8c11.3-3.4,22.5-7.2,34.2-10
		c5.3-0.9,10.8-1.6,16.3-1.9c2.7,0.2,5.3,0.5,8,1c0.6,0.2,1.2,0.5,1.8,0.7c0.3,0.2,0.5,0.4,0.8,0.7c0,0,0,0.1,0,0.1
		c-0.6,1.6-1.3,3.2-2,4.7c-1.9,3.1-4,6.2-5.8,9.3c-2.6,4.5-5.3,9-7.4,13.7c-2.1,4.8-3.2,9.8-4.4,14.8c-3.4,14.9,1.9,32.5,16.9,45.2
		c12.7,10.7,30.1,17.1,48.2,20.4c16.9,3.1,34.2,2.7,51.2,3.3c33.3,1,66.5,2.8,99.7,5.1v-61.8C733.4,453.5,716.6,452.7,699.8,452z
		 M214.2,331.3c2.4,0,4.7,0,7.1,0c0.3,0,0.5,0,0.8,0C219.4,331.4,216.8,331.4,214.2,331.3z"/>
	<path class="st1" d="M31.7,291.8c22.8-16.4,45.7-32.6,68.3-49.1c20.5-14.9,41.3-29.6,60.3-46.5c12.9-11.5,25.4-23.2,36-36.9
		c7.2-9.2,13.4-19.8,14.9-31.7c1.3-10.5,0.7-20.7-4.2-30.3C190.7,65.1,175.1,32.7,160.3,0H-0.2v63c2.3-1.1,4.7-2.2,7-3.3
		C35.8,46.2,64.9,32.6,94,19c2.1,6.4,4.2,12.8,6.4,19.2c9.5,27.3,19.9,54.2,31.4,80.6c1,2.3,2,4.5,3,6.8
		c-17.2,14.5-35.7,27.4-53.9,40.6c-15.4,11.1-30.6,22.4-45.8,33.6c-10.7-16.7-21.2-33.4-32.1-50c-1-1.6-2.1-3.2-3.1-4.8v147.8
		c3.1,2.9,6.7,4.4,10.9,4.5C18.2,298.5,25.4,296.3,31.7,291.8z"/>
	<path class="st2" d="M31.7,291.8c22.8-16.4,45.7-32.6,68.3-49.1c20.5-14.9,41.3-29.6,60.3-46.5c12.9-11.5,25.4-23.2,36-36.9
		c7.2-9.2,13.4-19.8,14.9-31.7c1.3-10.5,0.7-20.7-4.2-30.3C190.7,65.1,175.1,32.7,160.3,0H-0.2v63c2.3-1.1,4.7-2.2,7-3.3
		C35.8,46.2,64.9,32.6,94,19c2.1,6.4,4.2,12.8,6.4,19.2c9.5,27.3,19.9,54.2,31.4,80.6c1,2.3,2,4.5,3,6.8
		c-17.2,14.5-35.7,27.4-53.9,40.6c-15.4,11.1-30.6,22.4-45.8,33.6c-10.7-16.7-21.2-33.4-32.1-50c-1-1.6-2.1-3.2-3.1-4.8v147.8
		c3.1,2.9,6.7,4.4,10.9,4.5C18.2,298.5,25.4,296.3,31.7,291.8z"/>
	<path class="st1" d="M309.3,167.5c3.1,4.5,6.1,6.8,10.8,9.5c3,1.7,6.2,2.5,9.6,3.1c4.9,0.9,10,1.7,15,1.5
		c5.1-0.2,10.2-1.4,15.2-2.6c8.2-1.9,16-5.5,22.9-10.4c11.4-8.2,19-19.3,24.4-32c6.5-15.3,7.3-33.6,0.1-48.7
		c-2.7-5.6-6.7-9.6-11.9-12.7c-2.7-1.6-4.6-2.7-7.6-3.3c-2.1-0.4-4.3-0.7-6.4-1c-3.4-0.8-7-1.9-10.5-1.5c-9.7,0.9-17.4,6.6-23,14.1
		c-3.4,1.3-6.7,3-9.8,4.9c-9.2,5.8-16.2,14.5-22.2,23.4c-8.8,13.1-14.3,30.2-10.7,45.8C306,161.1,307.3,164.5,309.3,167.5z"/>
	<path class="st2" d="M309.3,167.5c3.1,4.5,6.1,6.8,10.8,9.5c3,1.7,6.2,2.5,9.6,3.1c4.9,0.9,10,1.7,15,1.5
		c5.1-0.2,10.2-1.4,15.2-2.6c8.2-1.9,16-5.5,22.9-10.4c11.4-8.2,19-19.3,24.4-32c6.5-15.3,7.3-33.6,0.1-48.7
		c-2.7-5.6-6.7-9.6-11.9-12.7c-2.7-1.6-4.6-2.7-7.6-3.3c-2.1-0.4-4.3-0.7-6.4-1c-3.4-0.8-7-1.9-10.5-1.5c-9.7,0.9-17.4,6.6-23,14.1
		c-3.4,1.3-6.7,3-9.8,4.9c-9.2,5.8-16.2,14.5-22.2,23.4c-8.8,13.1-14.3,30.2-10.7,45.8C306,161.1,307.3,164.5,309.3,167.5z"/>
	<path class="st1" d="M320.2,586.5c-7.1-6.1-15.8-11.1-25.5-10.6c-7,0.3-12.2,5.1-13.5,11.3c-0.4,0-0.7,0-1.1,0.1
		c-3,0.5-6,2-7.1,5.1c-1.2,3.4-0.5,6.7,0.8,10c3.3,8.8,8.2,17.1,13.6,24.6c3.1,4.4,6.8,8.4,10.4,12.3c6.2,6.6,16.8,12.3,25.8,8
		c4.8-2.3,8.1-7.7,9.7-12.6c1.5-4.5,2.4-9.3,2.2-14C335.2,607.8,330.2,595,320.2,586.5z"/>
	<path class="st2" d="M320.2,586.5c-7.1-6.1-15.8-11.1-25.5-10.6c-7,0.3-12.2,5.1-13.5,11.3c-0.4,0-0.7,0-1.1,0.1
		c-3,0.5-6,2-7.1,5.1c-1.2,3.4-0.5,6.7,0.8,10c3.3,8.8,8.2,17.1,13.6,24.6c3.1,4.4,6.8,8.4,10.4,12.3c6.2,6.6,16.8,12.3,25.8,8
		c4.8-2.3,8.1-7.7,9.7-12.6c1.5-4.5,2.4-9.3,2.2-14C335.2,607.8,330.2,595,320.2,586.5z"/>
	<path class="st1" d="M265.8,705.1c3.1-15,6.8-29.8,4.7-45.3c-1.8-12.9-6.9-25.9-16.5-35c-6.6-6.3-13.8-8.5-22.6-10
		c-7.7-1.3-16-0.8-23.7-0.8c-8.3,0-16.6,0.1-24.8,0.4c-16.8,0.6-33.5,2-50.2,4c-4.7,0.6-9.4,1.2-14,1.8c8-35.2,17.6-70,28.6-104.4
		c4-12.5,2-27.6-3.5-39.2c-4.1-8.9-12.1-19.2-23.3-18.9c-7.4,0.2-15,2-22.4,3.1c2.7-0.4,5.3-0.7,8-1.1c-7.1,1-14.4,2.4-21.6,2.7
		c-7.2,0.4-14.3,0.5-21.5,0.6c-14.1,0.3-28.2,0.5-42.3,0.4c-7,0-14-0.1-20.9-0.3v75.8c19.9,1.6,39.8,2.8,59.7,3.6
		c4.4,0.2,8.7,0.3,13.1,0.4C61.9,581.3,53,620.1,46,659.3c-2.7,15.1-2.8,31.2,5.7,44.7c3.2,5.5,7.6,9.6,13.2,12.4
		c5.5,2.5,11,2.8,16.7,0.9c8.3-1.6,16.7-3,25.1-4.3c19.6-2.6,39.4-4.3,59.2-5c10.4-0.4,20.8-0.5,31.2-0.3c0.4,0,0.7,0,1.1,0
		c-2.5,14.2-4.6,28.5-6.5,42.7h66.2c0.1-0.9,0.2-1.9,0.4-2.8C260.4,733.4,262.9,719.2,265.8,705.1z"/>
	<path class="st2" d="M265.8,705.1c3.1-15,6.8-29.8,4.7-45.3c-1.8-12.9-6.9-25.9-16.5-35c-6.6-6.3-13.8-8.5-22.6-10
		c-7.7-1.3-16-0.8-23.7-0.8c-8.3,0-16.6,0.1-24.8,0.4c-16.8,0.6-33.5,2-50.2,4c-4.7,0.6-9.4,1.2-14,1.8c8-35.2,17.6-70,28.6-104.4
		c4-12.5,2-27.6-3.5-39.2c-4.1-8.9-12.1-19.2-23.3-18.9c-7.4,0.2-15,2-22.4,3.1c2.7-0.4,5.3-0.7,8-1.1c-7.1,1-14.4,2.4-21.6,2.7
		c-7.2,0.4-14.3,0.5-21.5,0.6c-14.1,0.3-28.2,0.5-42.3,0.4c-7,0-14-0.1-20.9-0.3v75.8c19.9,1.6,39.8,2.8,59.7,3.6
		c4.4,0.2,8.7,0.3,13.1,0.4C61.9,581.3,53,620.1,46,659.3c-2.7,15.1-2.8,31.2,5.7,44.7c3.2,5.5,7.6,9.6,13.2,12.4
		c5.5,2.5,11,2.8,16.7,0.9c8.3-1.6,16.7-3,25.1-4.3c19.6-2.6,39.4-4.3,59.2-5c10.4-0.4,20.8-0.5,31.2-0.3c0.4,0,0.7,0,1.1,0
		c-2.5,14.2-4.6,28.5-6.5,42.7h66.2c0.1-0.9,0.2-1.9,0.4-2.8C260.4,733.4,262.9,719.2,265.8,705.1z"/>
	<path class="st1" d="M718.3,576.3c-9-5.3-18.5-9.5-28.5-12.4c-23.3-6.9-48.6-9.3-72.8-7.5c-23.2,1.7-46.7,6.7-68.4,14.9
		c-22.2,8.3-43.7,20.1-62.5,34.5c-22.4,17.2-40.8,37.5-56.9,60.7c-8.2,11.9-14.4,24.6-20.5,37.7c-4.5,9.5-8.1,19.4-10.8,29.5
		c-1.5,5.6-3,11.2-4.2,16.8h356.7v-151c-0.8-0.8-1.7-1.6-2.6-2.4C738.7,588.9,728.8,582.5,718.3,576.3z"/>
	<path class="st2" d="M718.3,576.3c-9-5.3-18.5-9.5-28.5-12.4c-23.3-6.9-48.6-9.3-72.8-7.5c-23.2,1.7-46.7,6.7-68.4,14.9
		c-22.2,8.3-43.7,20.1-62.5,34.5c-22.4,17.2-40.8,37.5-56.9,60.7c-8.2,11.9-14.4,24.6-20.5,37.7c-4.5,9.5-8.1,19.4-10.8,29.5
		c-1.5,5.6-3,11.2-4.2,16.8h356.7v-151c-0.8-0.8-1.7-1.6-2.6-2.4C738.7,588.9,728.8,582.5,718.3,576.3z"/>
	<path class="st1" d="M508.6,34.8c3.1,25.1,3.5,50.7,10.2,75.2c-2.2,1.2-4.4,2.5-6.6,3.8c-11.8,7.2-22.7,16.7-31.6,27.3
		c-11.5,13.8-19.9,28.1-27.4,44.4c-3.8,8.3-5.9,17.7-8,26.4c-1.4,5.6-1.5,11.4-1.7,17.2c0,1.3,0,2.7,0,4c-0.1,5.8,1.4,10.5,3.4,15.5
		l-1.9-4.8c0.4,2.1,0.7,4.1,1.1,6.2c0.7,3.9,3.6,8.9,6.6,11.6c4.1,3.6,9.4,4.6,14.7,3.6c11.6-2.4,19.8-13.3,23.8-23.8
		c0.1-0.2,0.1-0.3,0.2-0.5c1.3-2.3,2.5-4.8,3.7-7.5c0.4-1,0.8-2.1,1.3-3.1l-4.4,9.2c2.3-4.8,4.5-9.7,6.8-14.5
		c2.6-5.1,5.4-10.1,8.6-14.9c2.6-3.2,5.4-6.3,8.4-9.2c4.8-4,9.8-7.7,15.1-10.9c7.7-3.6,15.7-6.4,24-8.6c2.5,3.1,5,6.2,7.6,9.2
		c16.3,19,37.4,34.3,60.4,44.1c26.7,11.4,56.6,12.8,85.2,10.7c14.1-1,28.2-2.6,42.4-3.9v-87.4c-0.9,0.1-1.9,0.2-2.8,0.3
		c-23.2,2.3-46.6,4.9-69.8,2.1c-5.8-1.1-11.4-2.6-16.9-4.5c11.2-5.7,22-12.2,32.2-19.4c21.4-14.9,40.2-32.8,57.3-52.3V0h-24.3
		c-10.8,13.6-22.4,26.6-35.1,38.5c-12.8,11-26.3,21.1-41,29.4c-18.8,9.4-38.4,15-59,19.3c-0.4,0.1-0.8,0.2-1.2,0.2
		c-1.8-3.6-3.6-7.2-5.2-10.8c-4-11-6.9-22.3-8.8-33.9c-1.8-14.2-3-28.6-5.3-42.7h-74.6c2.9,4.2,5.4,8.6,7.6,13.3
		C505.7,20.3,507.4,27.5,508.6,34.8z"/>
	<path class="st2" d="M508.6,34.8c3.1,25.1,3.5,50.7,10.2,75.2c-2.2,1.2-4.4,2.5-6.6,3.8c-11.8,7.2-22.7,16.7-31.6,27.3
		c-11.5,13.8-19.9,28.1-27.4,44.4c-3.8,8.3-5.9,17.7-8,26.4c-1.4,5.6-1.5,11.4-1.7,17.2c0,1.3,0,2.7,0,4c-0.1,5.8,1.4,10.5,3.4,15.5
		l-1.9-4.8c0.4,2.1,0.7,4.1,1.1,6.2c0.7,3.9,3.6,8.9,6.6,11.6c4.1,3.6,9.4,4.6,14.7,3.6c11.6-2.4,19.8-13.3,23.8-23.8
		c0.1-0.2,0.1-0.3,0.2-0.5c1.3-2.3,2.5-4.8,3.7-7.5c0.4-1,0.8-2.1,1.3-3.1l-4.4,9.2c2.3-4.8,4.5-9.7,6.8-14.5
		c2.6-5.1,5.4-10.1,8.6-14.9c2.6-3.2,5.4-6.3,8.4-9.2c4.8-4,9.8-7.7,15.1-10.9c7.7-3.6,15.7-6.4,24-8.6c2.5,3.1,5,6.2,7.6,9.2
		c16.3,19,37.4,34.3,60.4,44.1c26.7,11.4,56.6,12.8,85.2,10.7c14.1-1,28.2-2.6,42.4-3.9v-87.4c-0.9,0.1-1.9,0.2-2.8,0.3
		c-23.2,2.3-46.6,4.9-69.8,2.1c-5.8-1.1-11.4-2.6-16.9-4.5c11.2-5.7,22-12.2,32.2-19.4c21.4-14.9,40.2-32.8,57.3-52.3V0h-24.3
		c-10.8,13.6-22.4,26.6-35.1,38.5c-12.8,11-26.3,21.1-41,29.4c-18.8,9.4-38.4,15-59,19.3c-0.4,0.1-0.8,0.2-1.2,0.2
		c-1.8-3.6-3.6-7.2-5.2-10.8c-4-11-6.9-22.3-8.8-33.9c-1.8-14.2-3-28.6-5.3-42.7h-74.6c2.9,4.2,5.4,8.6,7.6,13.3
		C505.7,20.3,507.4,27.5,508.6,34.8z"/>
</g>
</svg>
